<svg id="Layer_1" data-name="Layer 1" xmlns="http://www.w3.org/2000/svg" xmlns:xlink="http://www.w3.org/1999/xlink" viewBox="0 0 25.3 39"><defs><style>.cls-1{fill:url(#radial-gradient);}.cls-2{fill:#822b3c;}</style><radialGradient id="radial-gradient" cx="11.02" cy="39.19" r="3.55" gradientTransform="translate(-6.24 34.68) scale(1.71 0.1)" gradientUnits="userSpaceOnUse"><stop offset="0" stop-opacity="0.5"/><stop offset="1" stop-color="#fff" stop-opacity="0"/></radialGradient></defs><title>location pin</title><ellipse class="cls-1" cx="12.65" cy="38.58" rx="8.57" ry="0.42"/><path class="cls-2" d="M25.77,13.15a12.65,12.65,0,1,0-23.9,5.79h0l0,.08q.17.31.35.62L13.12,39.08,24,19.64c.12-.2.24-.41.35-.62l0-.08h0A12.59,12.59,0,0,0,25.77,13.15ZM13.12,21.31a8.15,8.15,0,1,1,8.15-8.15A8.15,8.15,0,0,1,13.12,21.31Z" transform="translate(-0.47 -0.5)"/></svg>